<svg width="622" height="134" viewBox="0 0 622 134" fill="none" xmlns="http://www.w3.org/2000/svg">
<rect x="96" width="255" height="96" fill="#E8EDFF"/>
<path d="M111.02 78V21.3H124.95C127.47 21.3 129.734 21.5333 131.74 22C133.794 22.4667 135.544 23.26 136.99 24.38C138.484 25.4533 139.627 26.9233 140.42 28.79C141.214 30.6567 141.61 33.0133 141.61 35.86C141.61 38.1467 141.284 40.1067 140.63 41.74C140.024 43.3733 139.114 44.68 137.9 45.66C136.687 46.5933 135.17 47.2233 133.35 47.55C135.59 47.9233 137.434 48.7167 138.88 49.93C140.374 51.0967 141.47 52.6367 142.17 54.55C142.917 56.4633 143.29 58.7733 143.29 61.48C143.29 64.1867 142.94 66.59 142.24 68.69C141.587 70.7433 140.584 72.47 139.23 73.87C137.924 75.2233 136.267 76.25 134.26 76.95C132.3 77.65 129.99 78 127.33 78H111.02ZM121.38 70.72H125.3C128.427 70.72 130.55 69.9733 131.67 68.48C132.79 66.94 133.35 64.5833 133.35 61.41C133.35 59.1233 133.07 57.28 132.51 55.88C131.997 54.4333 131.11 53.36 129.85 52.66C128.637 51.96 127.004 51.61 124.95 51.61H121.38V70.72ZM121.38 44.47H124.88C126.934 44.47 128.52 44.1667 129.64 43.56C130.76 42.9533 131.53 42.02 131.95 40.76C132.417 39.5 132.65 37.9133 132.65 36C132.65 33.9933 132.3 32.4533 131.6 31.38C130.947 30.26 129.944 29.5133 128.59 29.14C127.237 28.72 125.51 28.51 123.41 28.51H121.38V44.47ZM168.325 78.77C164.125 78.77 160.859 78 158.525 76.46C156.192 74.92 154.582 72.7267 153.695 69.88C152.809 67.0333 152.365 63.6267 152.365 59.66V21.3H162.445V60.85C162.445 62.6233 162.562 64.3033 162.795 65.89C163.029 67.43 163.565 68.69 164.405 69.67C165.292 70.6033 166.599 71.07 168.325 71.07C170.145 71.07 171.452 70.6033 172.245 69.67C173.085 68.69 173.622 67.43 173.855 65.89C174.135 64.3033 174.275 62.6233 174.275 60.85V21.3H184.285V59.66C184.285 63.6267 183.842 67.0333 182.955 69.88C182.069 72.7267 180.459 74.92 178.125 76.46C175.839 78 172.572 78.77 168.325 78.77ZM195.234 78V21.3H208.604C213.224 21.3 216.817 21.93 219.384 23.19C221.997 24.45 223.84 26.3867 224.914 29C226.034 31.6133 226.594 34.9267 226.594 38.94V59.66C226.594 63.7667 226.034 67.1967 224.914 69.95C223.84 72.6567 222.02 74.6867 219.454 76.04C216.934 77.3467 213.457 78 209.024 78H195.234ZM205.594 70.79H208.744C211.124 70.79 212.827 70.37 213.854 69.53C214.88 68.69 215.51 67.4767 215.744 65.89C215.977 64.2567 216.094 62.2733 216.094 59.94V38.24C216.094 35.9533 215.93 34.11 215.604 32.71C215.277 31.31 214.6 30.2833 213.574 29.63C212.547 28.9767 210.89 28.65 208.604 28.65H205.594V70.79ZM251.209 78.77C247.475 78.77 244.512 77.9767 242.319 76.39C240.125 74.8033 238.539 72.5633 237.559 69.67C236.625 66.73 236.159 63.2767 236.159 59.31V40.27C236.159 36.21 236.625 32.71 237.559 29.77C238.492 26.83 240.125 24.59 242.459 23.05C244.839 21.4633 248.105 20.67 252.259 20.67C256.132 20.67 259.212 21.3233 261.499 22.63C263.785 23.9367 265.419 25.8267 266.399 28.3C267.425 30.7267 267.939 33.69 267.939 37.19V40.13H258.069V36.91C258.069 35.09 257.929 33.5267 257.649 32.22C257.415 30.9133 256.902 29.9333 256.109 29.28C255.362 28.58 254.125 28.23 252.399 28.23C250.579 28.23 249.249 28.6733 248.409 29.56C247.615 30.4467 247.102 31.6133 246.869 33.06C246.682 34.5067 246.589 36.0933 246.589 37.82V61.55C246.589 63.51 246.752 65.2133 247.079 66.66C247.405 68.1067 248.012 69.2267 248.899 70.02C249.785 70.7667 251.045 71.14 252.679 71.14C254.359 71.14 255.642 70.72 256.529 69.88C257.415 69.04 258.022 67.8733 258.349 66.38C258.722 64.8867 258.909 63.1133 258.909 61.06V55.74H252.819V49.23H268.219V78H261.569L260.799 72.4C260.052 74.2667 258.909 75.8067 257.369 77.02C255.875 78.1867 253.822 78.77 251.209 78.77ZM278.9 78V21.3H302.7V28.58H289.26V44.89H299.83V52.1H289.26V70.86H302.84V78H278.9ZM317.311 78V28.93H308.281V21.3H336.561V28.93H327.671V78H317.311Z" fill="black"/>
<path d="M366.967 78V21.3H388.877V26.97H374.877V45.87H385.727V51.47H374.877V78H366.967ZM397.111 78V21.3H405.021V72.33H419.511V78H397.111ZM441.813 78.63C437.986 78.63 434.929 77.8833 432.643 76.39C430.356 74.8967 428.723 72.7733 427.743 70.02C426.763 67.22 426.273 63.9533 426.273 60.22V38.73C426.273 34.9967 426.763 31.8 427.743 29.14C428.769 26.4333 430.403 24.38 432.643 22.98C434.929 21.5333 437.986 20.81 441.813 20.81C445.639 20.81 448.673 21.5333 450.913 22.98C453.153 24.4267 454.763 26.48 455.743 29.14C456.769 31.8 457.283 34.9967 457.283 38.73V60.29C457.283 63.9767 456.769 67.1967 455.743 69.95C454.763 72.7033 453.153 74.85 450.913 76.39C448.673 77.8833 445.639 78.63 441.813 78.63ZM441.813 72.4C443.913 72.4 445.499 71.98 446.573 71.14C447.646 70.2533 448.369 69.04 448.743 67.5C449.116 65.9133 449.303 64.07 449.303 61.97V37.12C449.303 35.02 449.116 33.2233 448.743 31.73C448.369 30.19 447.646 29.0233 446.573 28.23C445.499 27.39 443.913 26.97 441.813 26.97C439.713 26.97 438.103 27.39 436.983 28.23C435.909 29.0233 435.186 30.19 434.813 31.73C434.439 33.2233 434.253 35.02 434.253 37.12V61.97C434.253 64.07 434.439 65.9133 434.813 67.5C435.186 69.04 435.909 70.2533 436.983 71.14C438.103 71.98 439.713 72.4 441.813 72.4ZM475.207 78L465.967 21.3H472.547L478.637 62.04L486.267 21.51H491.867L499.567 62.25L505.517 21.3H511.957L502.857 78H497.117L489.207 36L481.227 78H475.207Z" fill="black"/>
<path d="M110.548 127V121.92L110.788 122.58L104.908 113H106.028L111.368 121.7H110.808L116.148 113H117.208L111.328 122.58L111.568 121.92V127H110.548ZM123.117 127.08C122.117 127.08 121.223 126.853 120.437 126.4C119.663 125.947 119.043 125.32 118.577 124.52C118.123 123.72 117.897 122.807 117.897 121.78C117.897 120.74 118.123 119.827 118.577 119.04C119.043 118.24 119.663 117.613 120.437 117.16C121.223 116.707 122.117 116.48 123.117 116.48C124.117 116.48 125.01 116.707 125.797 117.16C126.583 117.613 127.203 118.24 127.657 119.04C128.11 119.827 128.337 120.74 128.337 121.78C128.337 122.807 128.11 123.72 127.657 124.52C127.203 125.32 126.583 125.947 125.797 126.4C125.01 126.853 124.117 127.08 123.117 127.08ZM123.117 126.18C123.917 126.18 124.637 126 125.277 125.64C125.917 125.267 126.417 124.747 126.777 124.08C127.137 123.413 127.317 122.647 127.317 121.78C127.317 120.9 127.137 120.133 126.777 119.48C126.417 118.813 125.917 118.3 125.277 117.94C124.637 117.567 123.917 117.38 123.117 117.38C122.317 117.38 121.597 117.567 120.957 117.94C120.33 118.3 119.83 118.813 119.457 119.48C119.097 120.133 118.917 120.9 118.917 121.78C118.917 122.647 119.097 123.413 119.457 124.08C119.83 124.747 120.33 125.267 120.957 125.64C121.597 126 122.317 126.18 123.117 126.18ZM136.479 127.08C135.586 127.08 134.812 126.92 134.159 126.6C133.506 126.267 132.999 125.773 132.639 125.12C132.292 124.453 132.119 123.633 132.119 122.66V116.56H133.119V122.58C133.119 123.753 133.419 124.647 134.019 125.26C134.619 125.873 135.466 126.18 136.559 126.18C137.346 126.18 138.026 126.013 138.599 125.68C139.172 125.347 139.612 124.88 139.919 124.28C140.226 123.667 140.379 122.947 140.379 122.12V116.56H141.379V127H140.419V124.1L140.559 124.44C140.252 125.253 139.739 125.9 139.019 126.38C138.312 126.847 137.466 127.08 136.479 127.08ZM146.418 127V116.56H147.378V119.42L147.278 119.1C147.571 118.26 148.065 117.613 148.758 117.16C149.451 116.707 150.318 116.48 151.358 116.48V117.46C151.318 117.46 151.278 117.46 151.238 117.46C151.198 117.447 151.158 117.44 151.118 117.44C149.958 117.44 149.051 117.807 148.398 118.54C147.745 119.26 147.418 120.267 147.418 121.56V127H146.418ZM162.246 119.9H169.826V120.82H162.246V119.9ZM162.366 127H161.346V113H170.706V113.92H162.366V127ZM174.443 127V116.56H175.443V127H174.443ZM174.943 114.02C174.716 114.02 174.523 113.94 174.363 113.78C174.203 113.62 174.123 113.433 174.123 113.22C174.123 112.993 174.203 112.8 174.363 112.64C174.523 112.48 174.716 112.4 174.943 112.4C175.183 112.4 175.376 112.48 175.523 112.64C175.683 112.787 175.763 112.973 175.763 113.2C175.763 113.427 175.683 113.62 175.523 113.78C175.376 113.94 175.183 114.02 174.943 114.02ZM185.558 116.48C186.411 116.48 187.151 116.647 187.778 116.98C188.418 117.3 188.911 117.793 189.258 118.46C189.618 119.113 189.798 119.927 189.798 120.9V127H188.798V120.98C188.798 119.807 188.498 118.913 187.898 118.3C187.311 117.687 186.485 117.38 185.418 117.38C184.605 117.38 183.898 117.547 183.298 117.88C182.698 118.213 182.238 118.68 181.918 119.28C181.611 119.88 181.458 120.6 181.458 121.44V127H180.458V116.56H181.418V119.46L181.278 119.14C181.598 118.313 182.125 117.667 182.858 117.2C183.591 116.72 184.491 116.48 185.558 116.48ZM201.295 127V124.62L201.255 124.26V120.34C201.255 119.367 200.988 118.627 200.455 118.12C199.935 117.613 199.168 117.36 198.155 117.36C197.435 117.36 196.762 117.487 196.135 117.74C195.522 117.98 194.995 118.293 194.555 118.68L194.055 117.96C194.575 117.493 195.202 117.133 195.935 116.88C196.668 116.613 197.435 116.48 198.235 116.48C199.528 116.48 200.522 116.807 201.215 117.46C201.908 118.113 202.255 119.087 202.255 120.38V127H201.295ZM197.535 127.08C196.762 127.08 196.088 126.96 195.515 126.72C194.955 126.467 194.522 126.113 194.215 125.66C193.922 125.207 193.775 124.687 193.775 124.1C193.775 123.567 193.895 123.087 194.135 122.66C194.388 122.22 194.802 121.867 195.375 121.6C195.948 121.32 196.715 121.18 197.675 121.18H201.515V121.96H197.695C196.615 121.96 195.855 122.16 195.415 122.56C194.988 122.96 194.775 123.46 194.775 124.06C194.775 124.727 195.028 125.26 195.535 125.66C196.042 126.06 196.755 126.26 197.675 126.26C198.555 126.26 199.295 126.06 199.895 125.66C200.508 125.26 200.962 124.68 201.255 123.92L201.535 124.6C201.255 125.36 200.775 125.967 200.095 126.42C199.428 126.86 198.575 127.08 197.535 127.08ZM212.275 116.48C213.128 116.48 213.868 116.647 214.495 116.98C215.135 117.3 215.628 117.793 215.975 118.46C216.335 119.113 216.515 119.927 216.515 120.9V127H215.515V120.98C215.515 119.807 215.215 118.913 214.615 118.3C214.028 117.687 213.202 117.38 212.135 117.38C211.322 117.38 210.615 117.547 210.015 117.88C209.415 118.213 208.955 118.68 208.635 119.28C208.328 119.88 208.175 120.6 208.175 121.44V127H207.175V116.56H208.135V119.46L207.995 119.14C208.315 118.313 208.842 117.667 209.575 117.2C210.308 116.72 211.208 116.48 212.275 116.48ZM225.572 127.08C224.559 127.08 223.652 126.853 222.852 126.4C222.065 125.947 221.439 125.32 220.972 124.52C220.519 123.72 220.292 122.807 220.292 121.78C220.292 120.74 220.519 119.82 220.972 119.02C221.439 118.22 222.065 117.6 222.852 117.16C223.652 116.707 224.559 116.48 225.572 116.48C226.412 116.48 227.172 116.64 227.852 116.96C228.545 117.28 229.105 117.76 229.532 118.4L228.792 118.94C228.419 118.407 227.952 118.013 227.392 117.76C226.832 117.507 226.225 117.38 225.572 117.38C224.759 117.38 224.025 117.567 223.372 117.94C222.732 118.3 222.225 118.813 221.852 119.48C221.492 120.133 221.312 120.9 221.312 121.78C221.312 122.66 221.492 123.433 221.852 124.1C222.225 124.753 222.732 125.267 223.372 125.64C224.025 126 224.759 126.18 225.572 126.18C226.225 126.18 226.832 126.053 227.392 125.8C227.952 125.547 228.419 125.153 228.792 124.62L229.532 125.16C229.105 125.8 228.545 126.28 227.852 126.6C227.172 126.92 226.412 127.08 225.572 127.08ZM237.39 127.08C236.337 127.08 235.403 126.853 234.59 126.4C233.79 125.947 233.157 125.32 232.69 124.52C232.237 123.72 232.01 122.807 232.01 121.78C232.01 120.74 232.223 119.827 232.65 119.04C233.09 118.24 233.69 117.613 234.45 117.16C235.21 116.707 236.063 116.48 237.01 116.48C237.957 116.48 238.803 116.7 239.55 117.14C240.31 117.58 240.903 118.2 241.33 119C241.77 119.787 241.99 120.7 241.99 121.74C241.99 121.78 241.983 121.827 241.97 121.88C241.97 121.92 241.97 121.967 241.97 122.02H232.75V121.24H241.43L241.03 121.62C241.043 120.807 240.87 120.08 240.51 119.44C240.163 118.787 239.69 118.28 239.09 117.92C238.49 117.547 237.797 117.36 237.01 117.36C236.237 117.36 235.543 117.547 234.93 117.92C234.33 118.28 233.857 118.787 233.51 119.44C233.163 120.08 232.99 120.813 232.99 121.64V121.82C232.99 122.673 233.177 123.433 233.55 124.1C233.937 124.753 234.463 125.267 235.13 125.64C235.797 126 236.557 126.18 237.41 126.18C238.077 126.18 238.697 126.06 239.27 125.82C239.857 125.58 240.35 125.213 240.75 124.72L241.33 125.38C240.877 125.94 240.303 126.367 239.61 126.66C238.93 126.94 238.19 127.08 237.39 127.08ZM248.524 127.08C247.657 127.08 246.844 126.953 246.084 126.7C245.337 126.447 244.757 126.127 244.344 125.74L244.804 124.94C245.204 125.287 245.737 125.587 246.404 125.84C247.07 126.08 247.79 126.2 248.564 126.2C249.657 126.2 250.444 126.02 250.924 125.66C251.404 125.3 251.644 124.827 251.644 124.24C251.644 123.813 251.517 123.48 251.264 123.24C251.024 122.987 250.697 122.793 250.284 122.66C249.87 122.527 249.417 122.42 248.924 122.34C248.43 122.247 247.937 122.147 247.444 122.04C246.95 121.933 246.497 121.78 246.084 121.58C245.67 121.38 245.337 121.107 245.084 120.76C244.844 120.4 244.724 119.927 244.724 119.34C244.724 118.807 244.87 118.327 245.164 117.9C245.457 117.473 245.897 117.133 246.484 116.88C247.07 116.613 247.804 116.48 248.684 116.48C249.337 116.48 249.99 116.573 250.644 116.76C251.31 116.947 251.85 117.193 252.264 117.5L251.804 118.3C251.364 117.967 250.87 117.727 250.324 117.58C249.777 117.433 249.224 117.36 248.664 117.36C247.65 117.36 246.904 117.547 246.424 117.92C245.957 118.293 245.724 118.76 245.724 119.32C245.724 119.76 245.844 120.113 246.084 120.38C246.337 120.633 246.67 120.833 247.084 120.98C247.497 121.113 247.95 121.227 248.444 121.32C248.937 121.4 249.43 121.493 249.924 121.6C250.417 121.707 250.87 121.86 251.284 122.06C251.697 122.247 252.024 122.513 252.264 122.86C252.517 123.193 252.644 123.647 252.644 124.22C252.644 124.793 252.484 125.293 252.164 125.72C251.857 126.147 251.397 126.48 250.784 126.72C250.17 126.96 249.417 127.08 248.524 127.08ZM255.274 129.86L256.054 126.48L256.154 127.06C255.901 127.06 255.688 126.98 255.514 126.82C255.354 126.66 255.274 126.46 255.274 126.22C255.274 125.98 255.354 125.78 255.514 125.62C255.688 125.46 255.888 125.38 256.114 125.38C256.368 125.38 256.568 125.467 256.714 125.64C256.874 125.8 256.954 125.993 256.954 126.22C256.954 126.313 256.948 126.407 256.934 126.5C256.921 126.593 256.901 126.687 256.874 126.78C256.848 126.873 256.814 126.993 256.774 127.14L255.994 129.86H255.274ZM267.295 127V113H268.155L274.655 124.22H274.195L280.675 113H281.515L281.535 127H280.535L280.515 114.54H280.795L274.655 125.14H274.155L267.995 114.54H268.295V127H267.295ZM291.136 127.08C290.083 127.08 289.15 126.853 288.336 126.4C287.536 125.947 286.903 125.32 286.436 124.52C285.983 123.72 285.756 122.807 285.756 121.78C285.756 120.74 285.97 119.827 286.396 119.04C286.836 118.24 287.436 117.613 288.196 117.16C288.956 116.707 289.81 116.48 290.756 116.48C291.703 116.48 292.55 116.7 293.296 117.14C294.056 117.58 294.65 118.2 295.076 119C295.516 119.787 295.736 120.7 295.736 121.74C295.736 121.78 295.73 121.827 295.716 121.88C295.716 121.92 295.716 121.967 295.716 122.02H286.496V121.24H295.176L294.776 121.62C294.79 120.807 294.616 120.08 294.256 119.44C293.91 118.787 293.436 118.28 292.836 117.92C292.236 117.547 291.543 117.36 290.756 117.36C289.983 117.36 289.29 117.547 288.676 117.92C288.076 118.28 287.603 118.787 287.256 119.44C286.91 120.08 286.736 120.813 286.736 121.64V121.82C286.736 122.673 286.923 123.433 287.296 124.1C287.683 124.753 288.21 125.267 288.876 125.64C289.543 126 290.303 126.18 291.156 126.18C291.823 126.18 292.443 126.06 293.016 125.82C293.603 125.58 294.096 125.213 294.496 124.72L295.076 125.38C294.623 125.94 294.05 126.367 293.356 126.66C292.676 126.94 291.936 127.08 291.136 127.08ZM302.67 127.08C301.75 127.08 301.043 126.827 300.55 126.32C300.07 125.813 299.83 125.12 299.83 124.24V114.28H300.83V124.14C300.83 124.807 300.996 125.32 301.33 125.68C301.663 126.04 302.143 126.22 302.77 126.22C303.423 126.22 303.963 126.027 304.39 125.64L304.81 126.34C304.543 126.593 304.216 126.78 303.83 126.9C303.456 127.02 303.07 127.08 302.67 127.08ZM297.91 117.42V116.56H304.15V117.42H297.91ZM308.399 127V116.56H309.399V127H308.399ZM308.899 114.02C308.672 114.02 308.479 113.94 308.319 113.78C308.159 113.62 308.079 113.433 308.079 113.22C308.079 112.993 308.159 112.8 308.319 112.64C308.479 112.48 308.672 112.4 308.899 112.4C309.139 112.4 309.332 112.48 309.479 112.64C309.639 112.787 309.719 112.973 309.719 113.2C309.719 113.427 309.639 113.62 309.479 113.78C309.332 113.94 309.139 114.02 308.899 114.02ZM318.553 127.08C317.54 127.08 316.633 126.853 315.833 126.4C315.047 125.947 314.42 125.32 313.953 124.52C313.5 123.72 313.273 122.807 313.273 121.78C313.273 120.74 313.5 119.82 313.953 119.02C314.42 118.22 315.047 117.6 315.833 117.16C316.633 116.707 317.54 116.48 318.553 116.48C319.393 116.48 320.153 116.64 320.833 116.96C321.527 117.28 322.087 117.76 322.513 118.4L321.773 118.94C321.4 118.407 320.933 118.013 320.373 117.76C319.813 117.507 319.207 117.38 318.553 117.38C317.74 117.38 317.007 117.567 316.353 117.94C315.713 118.3 315.207 118.813 314.833 119.48C314.473 120.133 314.293 120.9 314.293 121.78C314.293 122.66 314.473 123.433 314.833 124.1C315.207 124.753 315.713 125.267 316.353 125.64C317.007 126 317.74 126.18 318.553 126.18C319.207 126.18 319.813 126.053 320.373 125.8C320.933 125.547 321.4 125.153 321.773 124.62L322.513 125.16C322.087 125.8 321.527 126.28 320.833 126.6C320.153 126.92 319.393 127.08 318.553 127.08ZM330.547 127.08C329.654 127.08 328.88 126.92 328.227 126.6C327.574 126.267 327.067 125.773 326.707 125.12C326.36 124.453 326.187 123.633 326.187 122.66V116.56H327.187V122.58C327.187 123.753 327.487 124.647 328.087 125.26C328.687 125.873 329.534 126.18 330.627 126.18C331.414 126.18 332.094 126.013 332.667 125.68C333.24 125.347 333.68 124.88 333.987 124.28C334.294 123.667 334.447 122.947 334.447 122.12V116.56H335.447V127H334.487V124.1L334.627 124.44C334.32 125.253 333.807 125.9 333.087 126.38C332.38 126.847 331.534 127.08 330.547 127.08ZM340.486 127V112.16H341.486V127H340.486ZM350.581 127.08C349.581 127.08 348.688 126.853 347.901 126.4C347.128 125.947 346.508 125.32 346.041 124.52C345.588 123.72 345.361 122.807 345.361 121.78C345.361 120.74 345.588 119.827 346.041 119.04C346.508 118.24 347.128 117.613 347.901 117.16C348.688 116.707 349.581 116.48 350.581 116.48C351.581 116.48 352.474 116.707 353.261 117.16C354.048 117.613 354.668 118.24 355.121 119.04C355.574 119.827 355.801 120.74 355.801 121.78C355.801 122.807 355.574 123.72 355.121 124.52C354.668 125.32 354.048 125.947 353.261 126.4C352.474 126.853 351.581 127.08 350.581 127.08ZM350.581 126.18C351.381 126.18 352.101 126 352.741 125.64C353.381 125.267 353.881 124.747 354.241 124.08C354.601 123.413 354.781 122.647 354.781 121.78C354.781 120.9 354.601 120.133 354.241 119.48C353.881 118.813 353.381 118.3 352.741 117.94C352.101 117.567 351.381 117.38 350.581 117.38C349.781 117.38 349.061 117.567 348.421 117.94C347.794 118.3 347.294 118.813 346.921 119.48C346.561 120.133 346.381 120.9 346.381 121.78C346.381 122.647 346.561 123.413 346.921 124.08C347.294 124.747 347.794 125.267 348.421 125.64C349.061 126 349.781 126.18 350.581 126.18ZM363.943 127.08C363.05 127.08 362.277 126.92 361.623 126.6C360.97 126.267 360.463 125.773 360.103 125.12C359.757 124.453 359.583 123.633 359.583 122.66V116.56H360.583V122.58C360.583 123.753 360.883 124.647 361.483 125.26C362.083 125.873 362.93 126.18 364.023 126.18C364.81 126.18 365.49 126.013 366.063 125.68C366.637 125.347 367.077 124.88 367.383 124.28C367.69 123.667 367.843 122.947 367.843 122.12V116.56H368.843V127H367.883V124.1L368.023 124.44C367.717 125.253 367.203 125.9 366.483 126.38C365.777 126.847 364.93 127.08 363.943 127.08ZM376.522 127.08C375.655 127.08 374.842 126.953 374.082 126.7C373.335 126.447 372.755 126.127 372.342 125.74L372.802 124.94C373.202 125.287 373.735 125.587 374.402 125.84C375.069 126.08 375.789 126.2 376.562 126.2C377.655 126.2 378.442 126.02 378.922 125.66C379.402 125.3 379.642 124.827 379.642 124.24C379.642 123.813 379.515 123.48 379.262 123.24C379.022 122.987 378.695 122.793 378.282 122.66C377.869 122.527 377.415 122.42 376.922 122.34C376.429 122.247 375.935 122.147 375.442 122.04C374.949 121.933 374.495 121.78 374.082 121.58C373.669 121.38 373.335 121.107 373.082 120.76C372.842 120.4 372.722 119.927 372.722 119.34C372.722 118.807 372.869 118.327 373.162 117.9C373.455 117.473 373.895 117.133 374.482 116.88C375.069 116.613 375.802 116.48 376.682 116.48C377.335 116.48 377.989 116.573 378.642 116.76C379.309 116.947 379.849 117.193 380.262 117.5L379.802 118.3C379.362 117.967 378.869 117.727 378.322 117.58C377.775 117.433 377.222 117.36 376.662 117.36C375.649 117.36 374.902 117.547 374.422 117.92C373.955 118.293 373.722 118.76 373.722 119.32C373.722 119.76 373.842 120.113 374.082 120.38C374.335 120.633 374.669 120.833 375.082 120.98C375.495 121.113 375.949 121.227 376.442 121.32C376.935 121.4 377.429 121.493 377.922 121.6C378.415 121.707 378.869 121.86 379.282 122.06C379.695 122.247 380.022 122.513 380.262 122.86C380.515 123.193 380.642 123.647 380.642 124.22C380.642 124.793 380.482 125.293 380.162 125.72C379.855 126.147 379.395 126.48 378.782 126.72C378.169 126.96 377.415 127.08 376.522 127.08ZM384.233 127V112.16H385.233V127H384.233ZM390.008 130.96C389.528 130.96 389.074 130.88 388.648 130.72C388.234 130.56 387.881 130.327 387.588 130.02L388.088 129.26C388.354 129.54 388.641 129.747 388.948 129.88C389.268 130.013 389.628 130.08 390.028 130.08C390.508 130.08 390.928 129.947 391.288 129.68C391.661 129.413 392.008 128.927 392.328 128.22L393.048 126.62L393.188 126.44L397.608 116.56H398.628L393.268 128.42C392.988 129.06 392.681 129.56 392.348 129.92C392.028 130.293 391.674 130.56 391.288 130.72C390.901 130.88 390.474 130.96 390.008 130.96ZM393.028 127.26L388.188 116.56H389.248L393.648 126.38L393.028 127.26ZM407.871 127V113H408.731L415.231 124.22H414.771L421.251 113H422.091L422.111 127H421.111L421.091 114.54H421.371L415.231 125.14H414.731L408.571 114.54H408.871V127H407.871ZM434.052 127V124.62L434.012 124.26V120.34C434.012 119.367 433.745 118.627 433.212 118.12C432.692 117.613 431.925 117.36 430.912 117.36C430.192 117.36 429.519 117.487 428.892 117.74C428.279 117.98 427.752 118.293 427.312 118.68L426.812 117.96C427.332 117.493 427.959 117.133 428.692 116.88C429.425 116.613 430.192 116.48 430.992 116.48C432.285 116.48 433.279 116.807 433.972 117.46C434.665 118.113 435.012 119.087 435.012 120.38V127H434.052ZM430.292 127.08C429.519 127.08 428.845 126.96 428.272 126.72C427.712 126.467 427.279 126.113 426.972 125.66C426.679 125.207 426.532 124.687 426.532 124.1C426.532 123.567 426.652 123.087 426.892 122.66C427.145 122.22 427.559 121.867 428.132 121.6C428.705 121.32 429.472 121.18 430.432 121.18H434.272V121.96H430.452C429.372 121.96 428.612 122.16 428.172 122.56C427.745 122.96 427.532 123.46 427.532 124.06C427.532 124.727 427.785 125.26 428.292 125.66C428.799 126.06 429.512 126.26 430.432 126.26C431.312 126.26 432.052 126.06 432.652 125.66C433.265 125.26 433.719 124.68 434.012 123.92L434.292 124.6C434.012 125.36 433.532 125.967 432.852 126.42C432.185 126.86 431.332 127.08 430.292 127.08ZM445.032 116.48C445.885 116.48 446.625 116.647 447.252 116.98C447.892 117.3 448.385 117.793 448.732 118.46C449.092 119.113 449.272 119.927 449.272 120.9V127H448.272V120.98C448.272 119.807 447.972 118.913 447.372 118.3C446.785 117.687 445.959 117.38 444.892 117.38C444.079 117.38 443.372 117.547 442.772 117.88C442.172 118.213 441.712 118.68 441.392 119.28C441.085 119.88 440.932 120.6 440.932 121.44V127H439.932V116.56H440.892V119.46L440.752 119.14C441.072 118.313 441.599 117.667 442.332 117.2C443.065 116.72 443.965 116.48 445.032 116.48ZM460.769 127V124.62L460.729 124.26V120.34C460.729 119.367 460.462 118.627 459.929 118.12C459.409 117.613 458.642 117.36 457.629 117.36C456.909 117.36 456.236 117.487 455.609 117.74C454.996 117.98 454.469 118.293 454.029 118.68L453.529 117.96C454.049 117.493 454.676 117.133 455.409 116.88C456.142 116.613 456.909 116.48 457.709 116.48C459.002 116.48 459.996 116.807 460.689 117.46C461.382 118.113 461.729 119.087 461.729 120.38V127H460.769ZM457.009 127.08C456.236 127.08 455.562 126.96 454.989 126.72C454.429 126.467 453.996 126.113 453.689 125.66C453.396 125.207 453.249 124.687 453.249 124.1C453.249 123.567 453.369 123.087 453.609 122.66C453.862 122.22 454.276 121.867 454.849 121.6C455.422 121.32 456.189 121.18 457.149 121.18H460.989V121.96H457.169C456.089 121.96 455.329 122.16 454.889 122.56C454.462 122.96 454.249 123.46 454.249 124.06C454.249 124.727 454.502 125.26 455.009 125.66C455.516 126.06 456.229 126.26 457.149 126.26C458.029 126.26 458.769 126.06 459.369 125.66C459.982 125.26 460.436 124.68 460.729 123.92L461.009 124.6C460.729 125.36 460.249 125.967 459.569 126.42C458.902 126.86 458.049 127.08 457.009 127.08ZM470.989 130.96C470.043 130.96 469.143 130.813 468.289 130.52C467.436 130.227 466.743 129.82 466.209 129.3L466.749 128.54C467.269 129.02 467.889 129.393 468.609 129.66C469.343 129.927 470.129 130.06 470.969 130.06C472.369 130.06 473.396 129.733 474.049 129.08C474.716 128.427 475.049 127.4 475.049 126V123.1L475.249 121.54L475.089 119.98V116.56H476.049V125.88C476.049 127.627 475.623 128.907 474.769 129.72C473.929 130.547 472.669 130.96 470.989 130.96ZM470.709 126.62C469.723 126.62 468.836 126.407 468.049 125.98C467.276 125.54 466.656 124.94 466.189 124.18C465.736 123.407 465.509 122.527 465.509 121.54C465.509 120.54 465.736 119.66 466.189 118.9C466.656 118.14 467.276 117.547 468.049 117.12C468.836 116.693 469.723 116.48 470.709 116.48C471.656 116.48 472.503 116.687 473.249 117.1C474.009 117.5 474.609 118.08 475.049 118.84C475.489 119.587 475.709 120.487 475.709 121.54C475.709 122.58 475.489 123.48 475.049 124.24C474.609 125 474.009 125.587 473.249 126C472.503 126.413 471.656 126.62 470.709 126.62ZM470.789 125.72C471.629 125.72 472.369 125.547 473.009 125.2C473.649 124.84 474.149 124.347 474.509 123.72C474.883 123.08 475.069 122.353 475.069 121.54C475.069 120.713 474.883 119.987 474.509 119.36C474.149 118.733 473.649 118.247 473.009 117.9C472.369 117.553 471.629 117.38 470.789 117.38C469.976 117.38 469.243 117.553 468.589 117.9C467.949 118.247 467.443 118.733 467.069 119.36C466.709 119.987 466.529 120.713 466.529 121.54C466.529 122.353 466.709 123.08 467.069 123.72C467.443 124.347 467.949 124.84 468.589 125.2C469.243 125.547 469.976 125.72 470.789 125.72ZM485.322 127.08C484.269 127.08 483.335 126.853 482.522 126.4C481.722 125.947 481.089 125.32 480.622 124.52C480.169 123.72 479.942 122.807 479.942 121.78C479.942 120.74 480.155 119.827 480.582 119.04C481.022 118.24 481.622 117.613 482.382 117.16C483.142 116.707 483.995 116.48 484.942 116.48C485.889 116.48 486.735 116.7 487.482 117.14C488.242 117.58 488.835 118.2 489.262 119C489.702 119.787 489.922 120.7 489.922 121.74C489.922 121.78 489.915 121.827 489.902 121.88C489.902 121.92 489.902 121.967 489.902 122.02H480.682V121.24H489.362L488.962 121.62C488.975 120.807 488.802 120.08 488.442 119.44C488.095 118.787 487.622 118.28 487.022 117.92C486.422 117.547 485.729 117.36 484.942 117.36C484.169 117.36 483.475 117.547 482.862 117.92C482.262 118.28 481.789 118.787 481.442 119.44C481.095 120.08 480.922 120.813 480.922 121.64V121.82C480.922 122.673 481.109 123.433 481.482 124.1C481.869 124.753 482.395 125.267 483.062 125.64C483.729 126 484.489 126.18 485.342 126.18C486.009 126.18 486.629 126.06 487.202 125.82C487.789 125.58 488.282 125.213 488.682 124.72L489.262 125.38C488.809 125.94 488.235 126.367 487.542 126.66C486.862 126.94 486.122 127.08 485.322 127.08ZM497.836 127.08C496.862 127.08 495.982 126.86 495.196 126.42C494.422 125.967 493.809 125.34 493.356 124.54C492.902 123.74 492.676 122.82 492.676 121.78C492.676 120.727 492.902 119.807 493.356 119.02C493.809 118.22 494.422 117.6 495.196 117.16C495.982 116.707 496.862 116.48 497.836 116.48C498.756 116.48 499.582 116.693 500.316 117.12C501.062 117.547 501.649 118.153 502.076 118.94C502.516 119.727 502.736 120.673 502.736 121.78C502.736 122.86 502.522 123.8 502.096 124.6C501.669 125.4 501.082 126.013 500.336 126.44C499.602 126.867 498.769 127.08 497.836 127.08ZM497.896 126.18C498.696 126.18 499.409 126 500.036 125.64C500.676 125.267 501.176 124.747 501.536 124.08C501.909 123.413 502.096 122.647 502.096 121.78C502.096 120.9 501.909 120.133 501.536 119.48C501.176 118.813 500.676 118.3 500.036 117.94C499.409 117.567 498.696 117.38 497.896 117.38C497.096 117.38 496.376 117.567 495.736 117.94C495.109 118.3 494.609 118.813 494.236 119.48C493.876 120.133 493.696 120.9 493.696 121.78C493.696 122.647 493.876 123.413 494.236 124.08C494.609 124.747 495.109 125.267 495.736 125.64C496.376 126 497.096 126.18 497.896 126.18ZM502.116 127V123.58L502.296 121.76L502.096 119.94V112.16H503.096V127H502.116Z" fill="black"/>
</svg>
